<svg width="32" height="33" viewBox="0 0 32 33" fill="none" xmlns="http://www.w3.org/2000/svg">
<g id="Group">
<path id="Vector" d="M32 16.016C32 24.1049 26.0099 30.7921 18.2282 31.8772C17.5006 31.9782 16.7562 32.031 16.0006 32.031C15.1283 32.031 14.2718 31.9614 13.4377 31.8267C5.81859 30.599 0 23.987 0 16.016C0 7.17086 7.16393 0 15.9994 0C24.835 0 32 7.17086 32 16.016Z" fill="#1877F2"/>
<path id="Vector_2" d="M18.2281 12.8594V16.3483H22.5399L21.8571 21.048H18.2281V31.8762C17.5005 31.9772 16.756 32.0299 16.0004 32.0299C15.1282 32.0299 14.2716 31.9603 13.4375 31.8257V21.048H9.46094V16.3483H13.4375V12.0794C13.4375 9.43103 15.5822 7.28314 18.2292 7.28314V7.28539C18.237 7.28539 18.2438 7.28314 18.2516 7.28314H22.541V11.3478H19.7382C18.9052 11.3478 18.2292 12.0244 18.2292 12.8582L18.2281 12.8594Z" fill="white"/>
</g>
</svg>
