<svg width="22" height="24" viewBox="0 0 22 24" fill="none" xmlns="http://www.w3.org/2000/svg">
<g id="France">
<g clip-path="url(#clip0_120_2116)">
<path id="Vector" d="M11 24C17.0751 24 22 18.6274 22 12C22 5.37258 17.0751 0 11 0C4.92487 0 0 5.37258 0 12C0 18.6274 4.92487 24 11 24Z" fill="#F0F0F0"/>
<path id="Vector_2" d="M22 12C22 6.84043 19.0149 2.44191 14.8261 0.746399V23.2537C19.0149 21.5581 22 17.1596 22 12Z" fill="#D80027"/>
<path id="Vector_3" d="M0 12C0 17.1596 2.98517 21.5581 7.17393 23.2536V0.746399C2.98517 2.44191 0 6.84043 0 12Z" fill="#0052B4"/>
</g>
<rect x="1" y="1" width="20" height="22" rx="10" stroke="white" stroke-width="2"/>
</g>
<defs>
<clipPath id="clip0_120_2116">
<rect width="22" height="24" rx="11" fill="white"/>
</clipPath>
</defs>
</svg>
