<svg width="32" height="33" viewBox="0 0 32 33" fill="none" xmlns="http://www.w3.org/2000/svg">
<g id="Group">
<path id="Vector" d="M16.0364 0H15.9636C7.14713 0 0 7.15405 0 15.979V16.052C0 24.8769 7.14713 32.031 15.9636 32.031H16.0364C24.8529 32.031 32 24.8769 32 16.052V15.979C32 7.15405 24.8529 0 16.0364 0Z" fill="url(#paint0_linear_341_1111)"/>
<g id="Group_2">
<path id="Vector_2" d="M20.9515 6.51666H11.0498C8.31428 6.51666 6.08887 8.74423 6.08887 11.4824V20.5498C6.08887 23.2879 8.31428 25.5155 11.0498 25.5155H20.9515C23.687 25.5155 25.9124 23.2879 25.9124 20.5498V11.4824C25.9124 8.74423 23.687 6.51666 20.9515 6.51666ZM7.83893 11.4824C7.83893 9.71044 9.27956 8.26842 11.0498 8.26842H20.9515C22.7217 8.26842 24.1624 9.71044 24.1624 11.4824V20.5498C24.1624 22.3217 22.7217 23.7638 20.9515 23.7638H11.0498C9.27956 23.7638 7.83893 22.3217 7.83893 20.5498V11.4824Z" fill="white"/>
<path id="Vector_3" d="M16.0007 20.6339C18.5446 20.6339 20.6153 18.5624 20.6153 16.015C20.6153 13.4676 18.5457 11.396 16.0007 11.396C13.4558 11.396 11.3862 13.4676 11.3862 16.015C11.3862 18.5624 13.4558 20.6339 16.0007 20.6339ZM16.0007 13.1489C17.5804 13.1489 18.8652 14.4349 18.8652 16.0161C18.8652 17.5973 17.5804 18.8833 16.0007 18.8833C14.4211 18.8833 13.1363 17.5973 13.1363 16.0161C13.1363 14.4349 14.4211 13.1489 16.0007 13.1489Z" fill="white"/>
<path id="Vector_4" d="M21.0424 12.1422C21.7274 12.1422 22.2857 11.5845 22.2857 10.8977C22.2857 10.2109 21.7285 9.6532 21.0424 9.6532C20.3563 9.6532 19.7991 10.2109 19.7991 10.8977C19.7991 11.5845 20.3563 12.1422 21.0424 12.1422Z" fill="white"/>
</g>
</g>
<defs>
<linearGradient id="paint0_linear_341_1111" x1="4.67505" y1="27.3514" x2="27.3469" y2="4.70263" gradientUnits="userSpaceOnUse">
<stop stop-color="#FAAD4F"/>
<stop offset="0.35" stop-color="#DD2A7B"/>
<stop offset="0.62" stop-color="#9537B0"/>
<stop offset="1" stop-color="#515BD4"/>
</linearGradient>
</defs>
</svg>
