<svg width="32" height="33" viewBox="0 0 32 33" fill="none" xmlns="http://www.w3.org/2000/svg">
<g id="Group">
<path id="Vector" d="M16.0364 0H15.9636C7.14713 0 0 7.15405 0 15.979V16.052C0 24.8769 7.14713 32.031 15.9636 32.031H16.0364C24.8529 32.031 32 24.8769 32 16.052V15.979C32 7.15405 24.8529 0 16.0364 0Z" fill="black"/>
<g id="Group_2">
<path id="Vector_2" d="M24.113 12.7213V15.7456C23.585 15.694 22.8989 15.5739 22.1399 15.2956C21.1488 14.932 20.4111 14.4349 19.9279 14.05V20.1626L19.9156 20.1435C19.9234 20.2647 19.9279 20.3882 19.9279 20.5127C19.9279 23.5483 17.4603 26.0194 14.4266 26.0194C11.3929 26.0194 8.92529 23.5483 8.92529 20.5127C8.92529 17.4772 11.3929 15.005 14.4266 15.005C14.7237 15.005 15.0152 15.0286 15.3 15.0746V18.0551C15.0264 17.9575 14.7327 17.9048 14.4266 17.9048C12.9905 17.9048 11.8211 19.0741 11.8211 20.5127C11.8211 21.9514 12.9905 23.1207 14.4266 23.1207C15.8628 23.1207 17.0321 21.9503 17.0321 20.5127C17.0321 20.4589 17.031 20.405 17.0276 20.3511V8.47266H20.0468C20.058 8.72852 20.0681 8.98662 20.0793 9.24249C20.0995 9.74635 20.2788 10.23 20.5916 10.6262C20.9582 11.0919 21.4997 11.6328 22.2598 12.0648C22.9717 12.4688 23.6399 12.6416 24.113 12.7236V12.7213Z" fill="#FF004F"/>
<path id="Vector_3" d="M23.075 10.2659V13.2902C22.5469 13.2386 21.8608 13.1185 21.1018 12.8402C20.1107 12.4766 19.373 11.9795 18.8898 11.5946V17.7072L18.8775 17.6881C18.8853 17.8093 18.8898 17.9328 18.8898 18.0573C18.8898 21.0929 16.4223 23.564 13.3885 23.564C10.3548 23.564 7.88721 21.0929 7.88721 18.0573C7.88721 15.0218 10.3548 12.5496 13.3885 12.5496C13.6856 12.5496 13.9771 12.5732 14.2619 12.6192V15.5997C13.9883 15.5021 13.6946 15.4494 13.3885 15.4494C11.9524 15.4494 10.783 16.6187 10.783 18.0573C10.783 19.496 11.9524 20.6653 13.3885 20.6653C14.8247 20.6653 15.994 19.4949 15.994 18.0573C15.994 18.0035 15.9929 17.9496 15.9895 17.8958V6.01501H19.0087C19.0199 6.27088 19.03 6.52898 19.0412 6.78484C19.0614 7.28871 19.2407 7.77238 19.5535 8.16852C19.9201 8.63423 20.4616 9.17513 21.2218 9.60718C21.9337 10.01 22.6018 10.184 23.075 10.2659Z" fill="#00F7EF"/>
<path id="Vector_4" d="M23.7351 11.5879V14.6122C23.2071 14.5606 22.5209 14.4405 21.7619 14.1622C20.7709 13.7986 20.0332 13.3015 19.55 12.9166V19.0292L19.5377 19.0101C19.5455 19.1313 19.55 19.2548 19.55 19.3793C19.55 22.4149 17.0824 24.886 14.0487 24.886C11.0149 24.886 8.54736 22.4149 8.54736 19.3793C8.54736 16.3438 11.0149 13.8716 14.0487 13.8716C14.3458 13.8716 14.6373 13.8951 14.922 13.9411V16.9217C14.6485 16.8241 14.3547 16.7713 14.0487 16.7713C12.6125 16.7713 11.4432 17.9407 11.4432 19.3793C11.4432 20.818 12.6125 21.9873 14.0487 21.9873C15.4848 21.9873 16.6541 20.8169 16.6541 19.3793C16.6541 19.3255 16.653 19.2716 16.6497 19.2177V7.33923H19.6688C19.68 7.5951 19.6901 7.8532 19.7013 8.10906C19.7215 8.61293 19.9009 9.0966 20.2137 9.49274C20.5803 9.95845 21.1218 10.4994 21.8819 10.9314C22.5938 11.3343 23.262 11.5082 23.7351 11.5901V11.5879Z" fill="white"/>
</g>
</g>
</svg>
