<svg width="22" height="24" viewBox="0 0 22 24" fill="none" xmlns="http://www.w3.org/2000/svg">
<g clip-path="url(#clip0_120_2117)">
<path d="M11 24C17.0751 24 22 18.6274 22 12C22 5.37258 17.0751 0 11 0C4.92487 0 0 5.37258 0 12C0 18.6274 4.92487 24 11 24Z" fill="#F0F0F0"/>
<path d="M2.27391 4.69415C1.40985 5.92054 0.758316 7.33406 0.378944 8.86964H6.10144L2.27391 4.69415Z" fill="#0052B4"/>
<path d="M21.6211 8.86965C21.2417 7.33412 20.5901 5.9206 19.7261 4.69421L15.8987 8.86965H21.6211Z" fill="#0052B4"/>
<path d="M0.378944 15.1305C0.758358 16.666 1.40989 18.0795 2.27391 19.3059L6.10131 15.1305H0.378944Z" fill="#0052B4"/>
<path d="M17.697 2.48067C16.5728 1.53806 15.2772 0.827297 13.8695 0.413391V6.65606L17.697 2.48067Z" fill="#0052B4"/>
<path d="M4.30298 21.5193C5.42717 22.4619 6.72289 23.1727 8.13046 23.5866V17.344L4.30298 21.5193Z" fill="#0052B4"/>
<path d="M8.13042 0.413391C6.72285 0.827297 5.42713 1.53806 4.30298 2.48063L8.13042 6.65602V0.413391Z" fill="#0052B4"/>
<path d="M13.8696 23.5866C15.2772 23.1727 16.5729 22.4619 17.697 21.5194L13.8696 17.344V23.5866Z" fill="#0052B4"/>
<path d="M15.8987 15.1305L19.7261 19.3059C20.5901 18.0796 21.2417 16.666 21.6211 15.1305H15.8987Z" fill="#0052B4"/>
<path d="M21.9069 10.4348H12.4349H12.4348V0.101578C11.9651 0.034875 11.4863 0 11 0C10.5136 0 10.0349 0.034875 9.56523 0.101578V10.4347V10.4347H0.0931133C0.0319688 10.9471 0 11.4695 0 12C0 12.5306 0.0319688 13.0529 0.0931133 13.5652H9.56514H9.56519V23.8984C10.0349 23.9651 10.5136 24 11 24C11.4863 24 11.9651 23.9652 12.4348 23.8984V13.5653V13.5653H21.9069C21.968 13.0529 22 12.5306 22 12C22 11.4695 21.968 10.9471 21.9069 10.4348Z" fill="#D80027"/>
<path d="M13.8696 15.1305L18.7782 20.4853C19.0039 20.2391 19.2193 19.9817 19.4248 19.7149L15.2223 15.1305H13.8696V15.1305Z" fill="#D80027"/>
<path d="M8.13041 15.1305H8.13033L3.22179 20.4853C3.44747 20.7315 3.68341 20.9665 3.92799 21.1906L8.13041 16.6061V15.1305Z" fill="#D80027"/>
<path d="M8.13042 8.86963V8.86954L3.22184 3.51468C2.99608 3.76087 2.78073 4.01826 2.57525 4.28507L6.77772 8.86959H8.13042V8.86963Z" fill="#D80027"/>
<path d="M13.8696 8.86965L18.7782 3.51475C18.5525 3.26846 18.3166 3.03353 18.072 2.80942L13.8696 7.39393V8.86965Z" fill="#D80027"/>
</g>
<rect x="1" y="1" width="20" height="22" rx="10" stroke="white" stroke-width="2"/>
<defs>
<clipPath id="clip0_120_2117">
<rect width="22" height="24" rx="11" fill="white"/>
</clipPath>
</defs>
</svg>
