<svg width="32" height="33" viewBox="0 0 32 33" fill="none" xmlns="http://www.w3.org/2000/svg">
<g id="Group">
<path id="Vector" d="M31.9978 16.016C31.9978 24.1049 26.0078 30.7921 18.2265 31.8772C17.4989 31.9782 16.7545 32.031 15.9989 32.031C15.1267 32.031 14.2702 31.9614 13.4361 31.8267C5.81838 30.599 0 23.987 0 16.016C0 7.17086 7.16368 0 16 0C24.8363 0 32 7.17086 32 16.016H31.9978Z" fill="#1C1C1B"/>
<g id="layer1">
<path id="path1009" d="M6.48884 7.06317L13.8678 16.9385L6.44287 24.9679H8.1144L14.6155 17.9384L19.8678 24.9679H25.555L17.7613 14.537L24.6727 7.06317H23.0012L17.0146 13.5371L12.1772 7.06317H6.48995H6.48884ZM8.94623 8.29535H11.5583L23.0953 23.7357H20.4832L8.94623 8.29535Z" fill="white"/>
</g>
</g>
</svg>
