<svg width="32" height="33" viewBox="0 0 32 33" fill="none" xmlns="http://www.w3.org/2000/svg">
<g id="Group">
<path id="Vector" d="M32 16.0155C32 7.17038 24.8366 0 16 0C7.16345 0 0 7.17038 0 16.0155C0 24.8606 7.16345 32.031 16 32.031C24.8366 32.031 32 24.8606 32 16.0155Z" fill="#FF0209"/>
<g id="Group_2">
<path id="Vector_2" d="M22.7918 23.1088C22.3151 23.1606 21.8272 23.1696 21.3595 23.1685C17.7111 23.1651 14.0627 23.1617 10.4154 23.1595C9.26753 23.1595 8.01731 23.1223 7.13023 22.3919C6.13072 21.567 5.92273 20.1366 5.84178 18.8424C5.72935 17.0688 5.72035 15.2896 5.81254 13.5148C5.86314 12.5402 5.95195 11.542 6.37132 10.6597C6.67263 10.0261 7.1752 9.45665 7.8183 9.1573C8.56597 8.80955 9.34849 8.87145 10.1535 8.87032C12.0806 8.86807 14.0076 8.86695 15.9347 8.8647C17.9382 8.86245 19.9428 8.86132 21.9463 8.85907C22.893 8.85907 23.9094 8.8782 24.6818 9.42627C25.6791 10.133 25.95 11.4779 26.0748 12.6944C26.3053 14.9351 26.3087 17.1994 26.0838 19.44C25.9905 20.364 25.8353 21.3408 25.2271 22.0419C24.6244 22.7374 23.7306 23.0053 22.793 23.1077L22.7918 23.1088Z" fill="white"/>
<path id="Vector_3" d="M19.2628 16.0155L13.8257 12.8734V19.1576L19.2628 16.0155Z" fill="#FF0209"/>
</g>
</g>
</svg>
